<?xml version="1.0" encoding="UTF-8" standalone="no"?>
<svg
   xmlns:dc="http://purl.org/dc/elements/1.1/"
   xmlns:cc="http://creativecommons.org/ns#"
   xmlns:rdf="http://www.w3.org/1999/02/22-rdf-syntax-ns#"
   xmlns:svg="http://www.w3.org/2000/svg"
   xmlns="http://www.w3.org/2000/svg"
   id="svg164"
   version="1.1"
   viewBox="0 0 119.06251 78.911247"
   height="78.911247mm"
   width="119.06251mm">
  <defs
     id="defs158" />
  <metadata
     id="metadata161">
    <rdf:RDF>
      <cc:Work
         rdf:about="">
        <dc:format>image/svg+xml</dc:format>
        <dc:type
           rdf:resource="http://purl.org/dc/dcmitype/StillImage" />
        <dc:title></dc:title>
      </cc:Work>
    </rdf:RDF>
  </metadata>
  <g
     transform="translate(150.05655,-177.04646)"
     id="layer1">
    <path
       id="path40"
       d="m -94.229464,255.86479 c -20.290196,-1.05205 -38.773016,-11.7038 -50.244656,-28.95631 -2.07576,-3.12179 -5.58243,-9.67655 -5.58243,-10.43484 0,-0.75828 3.50667,-7.31304 5.58243,-10.43484 10.6138,-15.96236 27.11556,-26.23033 45.992816,-28.61832 3.94222,-0.49869 11.96979,-0.49869 15.91201,0 18.87726,2.38799 35.379023,12.65596 45.992823,28.61832 2.075759,3.1218 5.58243,9.67656 5.58243,10.43484 0,0.75829 -3.506671,7.31305 -5.58243,10.43484 -12.937681,19.45732 -34.264963,30.16898 -57.652993,28.95631 z m 9.12812,-14.66399 c 3.27502,-0.19466 8.88834,-1.20662 12.56236,-2.26472 9.341082,-2.69018 18.191173,-7.6821 25.638492,-14.46147 2.702031,-2.45968 7.175201,-7.44765 7.175201,-8.00097 0,-0.55331 -4.47317,-5.54128 -7.175201,-8.00096 -13.14655,-11.96743 -29.792802,-17.853 -47.593382,-16.82748 -14.753346,0.84997 -28.523206,6.69298 -39.656226,16.82748 -2.70203,2.45968 -7.1752,7.44765 -7.1752,8.00096 0,0.55332 4.47317,5.54129 7.1752,8.00097 11.0215,10.03299 24.87004,15.95147 39.421786,16.8478 3.45548,0.21284 4.14721,0.20411 9.62697,-0.12161 z m -9.05983,-4.11809 c -4.00737,-0.66794 -7.926306,-2.7571 -11.071186,-5.902 -4.07281,-4.0728 -6.19102,-9.10472 -6.19102,-14.70707 0,-5.60234 2.11821,-10.63426 6.19102,-14.70706 3.31287,-3.31288 7.086976,-5.25522 11.576916,-5.95805 2.09926,-0.32861 6.2837,-0.17075 8.02494,0.30273 1.71727,0.46698 4.44185,1.54131 5.23044,2.06243 l 0.73252,0.48407 -1.51746,0.77606 c -4.07758,2.08535 -4.34664,7.63731 -0.4858,10.02428 1.09705,0.67825 1.55445,0.79784 3.05176,0.79784 2.4388,0 4.03234,-0.9693 5.13357,-3.12259 l 0.77606,-1.51746 0.48407,0.73252 c 0.52112,0.78859 1.59545,3.51317 2.06243,5.23044 0.47348,1.74124 0.63134,5.92567 0.30273,8.02494 -0.70283,4.48994 -2.64517,8.26405 -5.95805,11.57692 -4.16462,4.16464 -9.22142,6.24593 -14.97165,6.1621 -1.0914,-0.0159 -2.60849,-0.13296 -3.37129,-0.2601 z"
       style="fill:#000000;stroke-width:0.26458338" />
  </g>
</svg>
