<?xml version="1.0" encoding="UTF-8" standalone="no"?>
<svg
   xmlns:dc="http://purl.org/dc/elements/1.1/"
   xmlns:cc="http://creativecommons.org/ns#"
   xmlns:rdf="http://www.w3.org/1999/02/22-rdf-syntax-ns#"
   xmlns:svg="http://www.w3.org/2000/svg"
   xmlns="http://www.w3.org/2000/svg"
   id="svg164"
   version="1.1"
   viewBox="0 0 119.06251 88.46846"
   height="88.46846mm"
   width="119.06251mm">
  <defs
     id="defs158" />
  <metadata
     id="metadata161">
    <rdf:RDF>
      <cc:Work
         rdf:about="">
        <dc:format>image/svg+xml</dc:format>
        <dc:type
           rdf:resource="http://purl.org/dc/dcmitype/StillImage" />
        <dc:title></dc:title>
      </cc:Work>
    </rdf:RDF>
  </metadata>
  <g
     transform="translate(186.53125,-155.24791)"
     id="layer1">
    <g
       id="g58"
       transform="translate(-128.51189,-183.21181)">
      <path
         id="path38"
         d="M -2.1922733,417.27805 C -22.482473,416.226 -40.965293,405.57425 -52.436933,388.32174 c -2.07576,-3.12179 -5.58243,-9.67655 -5.58243,-10.43484 0,-0.75828 3.50667,-7.31304 5.58243,-10.43484 10.6138,-15.96236 27.11556,-26.23033 45.9928197,-28.61832 3.94222,-0.49869 11.96979,-0.49869 15.91201,0 18.8772603,2.38799 35.3790203,12.65596 45.9928203,28.61832 2.07576,3.1218 5.58243,9.67656 5.58243,10.43484 0,0.75829 -3.50667,7.31305 -5.58243,10.43484 -12.93768,19.45732 -34.26496,30.16898 -57.6529903,28.95631 z m 9.12812,-14.66399 c 3.2750203,-0.19466 8.8883403,-1.20662 12.5623603,-2.26472 9.34108,-2.69018 18.19117,-7.6821 25.63849,-14.46147 2.70203,-2.45968 7.1752,-7.44765 7.1752,-8.00097 0,-0.55331 -4.47317,-5.54128 -7.1752,-8.00096 -13.14655,-11.96743 -29.7928,-17.853 -47.5933803,-16.82748 -14.7533497,0.84997 -28.5232097,6.69298 -39.6562297,16.82748 -2.70203,2.45968 -7.1752,7.44765 -7.1752,8.00096 0,0.55332 4.47317,5.54129 7.1752,8.00097 11.0215,10.03299 24.87004,15.95147 39.4217897,16.8478 3.45547997,0.21284 4.14721,0.20411 9.62697,-0.12161 z"
         style="fill:#000000;stroke-width:0.26458335" />
      <rect
         id="rect42"
         width="9.7517967"
         height="13.525533"
         x="-3.528621"
         y="413.40265"
         style="stroke-width:0.26458332" />
      <rect
         style="stroke-width:0.26458332"
         y="411.66541"
         x="17.051132"
         height="13.525533"
         width="9.7517967"
         id="rect44" />
      <rect
         id="rect46"
         width="9.7517967"
         height="13.525533"
         x="33.087303"
         y="401.50916"
         style="stroke-width:0.26458332" />
      <rect
         style="stroke-width:0.26458332"
         y="411.79904"
         x="-22.103853"
         height="13.525533"
         width="9.7517967"
         id="rect48" />
      <rect
         id="rect50"
         width="9.7517967"
         height="13.525533"
         x="-38.140026"
         y="403.64731"
         style="stroke-width:0.26458332" />
    </g>
  </g>
</svg>
