<?xml version="1.0" encoding="UTF-8" standalone="no"?>
<svg
   xmlns:dc="http://purl.org/dc/elements/1.1/"
   xmlns:cc="http://creativecommons.org/ns#"
   xmlns:rdf="http://www.w3.org/1999/02/22-rdf-syntax-ns#"
   xmlns:svg="http://www.w3.org/2000/svg"
   xmlns="http://www.w3.org/2000/svg"
   id="svg164"
   version="1.1"
   viewBox="0 0 98.95418 112.40385"
   height="112.40385mm"
   width="98.954178mm">
  <defs
     id="defs158" />
  <metadata
     id="metadata161">
    <rdf:RDF>
      <cc:Work
         rdf:about="">
        <dc:format>image/svg+xml</dc:format>
        <dc:type
           rdf:resource="http://purl.org/dc/dcmitype/StillImage" />
        <dc:title></dc:title>
      </cc:Work>
    </rdf:RDF>
  </metadata>
  <g
     transform="translate(332.86204,-38.968014)"
     id="layer1">
    <path
       id="path32"
       d="m -328.63042,151.14001 c -1.79436,-0.54582 -3.0089,-1.53982 -3.8038,-3.11308 -0.38603,-0.76405 -0.42782,-3.58862 -0.42782,-28.91628 0,-27.4096 0.0122,-28.09354 0.52149,-29.09171 0.68468,-1.34209 2.17408,-2.54396 3.59636,-2.9021 1.5016,-0.3781 60.42843,-0.40623 61.74213,-0.0295 1.38144,0.39619 2.77055,1.48251 3.48033,2.72172 l 0.64199,1.12084 v 28.17813 c 0,26.93796 -0.0216,28.21773 -0.49051,29.07804 -0.26978,0.49496 -0.8651,1.24285 -1.32292,1.66199 -1.7395,1.59251 -0.61268,1.54128 -33.35804,1.51639 -16.45382,-0.0125 -30.21446,-0.11352 -30.57921,-0.22447 z m 36.23567,-18.33977 c -0.008,-0.1819 -0.70299,-3.36682 -1.54514,-7.0776 l -1.53116,-6.74687 0.85486,-0.45456 c 3.05681,-1.62542 4.54242,-5.40931 3.41864,-8.7074 -1.85113,-5.4328 -9.37681,-6.40919 -12.54407,-1.6275 -2.20934,3.3355 -1.43158,7.4661 1.85395,9.84612 0.59099,0.42811 1.18719,0.81594 1.32488,0.86184 0.19503,0.065 -2.17947,11.63817 -2.82598,13.77368 -0.13041,0.43076 0.24824,0.46302 5.4339,0.46302 4.29033,0 5.57086,-0.0762 5.56012,-0.33073 z m 6.69917,-60.85416 c 0.12059,-13.418394 0.15469,-13.664264 2.57743,-18.586984 3.20405,-6.51029 9.03717,-11.42922 16.02139,-13.51046 1.85076,-0.55151 3.12913,-0.73455 5.87982,-0.84186 4.21259,-0.16434 6.62822,0.17322 10.09562,1.41077 7.84016,2.79823 14.19584,9.71663 16.28114,17.72262 0.75827,2.911214 0.93232,5.832984 0.93232,15.651054 v 9.86267 h -5.55625 -5.55625 l -0.005,-9.98802 c -0.005,-11.2395 -0.13144,-12.36966 -1.74926,-15.657034 -1.75066,-3.5573 -5.42087,-6.55784 -9.23735,-7.55191 -2.48386,-0.64696 -6.12344,-0.53499 -8.49576,0.26138 -4.83577,1.62331 -8.47401,5.4953 -9.72696,10.351894 -0.34841,1.35046 -0.41942,3.39985 -0.41942,12.10469 l 10e-6,10.479 h -5.57354 -5.57356 z"
       style="fill:#000000;stroke-width:0.26458338" />
  </g>
</svg>
