<?xml version="1.0" encoding="UTF-8" standalone="no"?>
<svg
   xmlns:dc="http://purl.org/dc/elements/1.1/"
   xmlns:cc="http://creativecommons.org/ns#"
   xmlns:rdf="http://www.w3.org/1999/02/22-rdf-syntax-ns#"
   xmlns:svg="http://www.w3.org/2000/svg"
   xmlns="http://www.w3.org/2000/svg"
   id="svg164"
   version="1.1"
   viewBox="0 0 70.109186 112.34113"
   height="112.34113mm"
   width="70.109184mm">
  <defs
     id="defs158" />
  <metadata
     id="metadata161">
    <rdf:RDF>
      <cc:Work
         rdf:about="">
        <dc:format>image/svg+xml</dc:format>
        <dc:type
           rdf:resource="http://purl.org/dc/dcmitype/StillImage" />
        <dc:title></dc:title>
      </cc:Work>
    </rdf:RDF>
  </metadata>
  <g
     transform="translate(241.80757,-79.590714)"
     id="layer1">
    <path
       style="fill:#000000;stroke-width:0.26458338"
       d="m -237.44735,191.7733 c -1.80543,-0.44575 -3.1106,-1.47842 -3.93781,-3.11563 -0.38612,-0.76423 -0.42725,-3.57522 -0.42201,-28.83959 0.006,-26.65848 0.0291,-28.04417 0.495,-29.06988 0.66471,-1.46351 2.20805,-2.67902 3.84982,-3.03204 0.93236,-0.20049 10.48715,-0.26293 31.52125,-0.20597 l 30.18334,0.0817 1.29038,0.79783 c 0.93939,0.58083 1.49147,1.18278 2.02968,2.21302 l 0.73931,1.41519 v 27.72084 27.72082 l -0.73931,1.41519 c -0.53821,1.03025 -1.09029,1.63221 -2.02966,2.21303 l -1.29035,0.79783 -30.44796,0.0418 c -16.74636,0.023 -30.80512,-0.0464 -31.24168,-0.15417 z m 36.11562,-18.24877 c 0,-0.13043 -0.65484,-3.16286 -1.45521,-6.73871 -0.80036,-3.57584 -1.4552,-6.67249 -1.4552,-6.88143 0,-0.20894 0.53198,-0.69167 1.18218,-1.0727 1.295,-0.75892 2.52283,-2.35508 3.04605,-3.95983 0.53042,-1.62678 0.21532,-4.17663 -0.69884,-5.65527 -1.51055,-2.44325 -3.93245,-3.67776 -6.72355,-3.42719 -6.29849,0.56545 -8.73724,8.33476 -3.91255,12.46451 0.6141,0.52565 1.26667,0.95572 1.45017,0.95572 0.76765,0 0.76152,0.0367 -2.26709,13.5599 l -0.22221,0.99217 h 5.52813 c 3.08309,0 5.52812,-0.10489 5.52812,-0.23717 z m -31.42256,-60.55084 c 0.10561,-11.17104 0.1154,-11.34241 0.79175,-13.855931 2.67811,-9.95273 10.25947,-17.12273 20.30283,-19.20121 2.80341,-0.58016 8.91782,-0.35442 11.6509,0.43016 7.12401,2.04506 13.15891,7.06485 16.40209,13.64313 2.44996,4.96941 2.47763,5.16841 2.58468,18.586971 l 0.0934,11.70782 h -5.57132 -5.57134 v -10.52774 c 0,-11.55812 -0.0584,-12.10769 -1.61377,-15.188871 -0.974,-1.9295 -3.25925,-4.43141 -5.17866,-5.66965 -4.29586,-2.77133 -10.39926,-2.9965 -15.01415,-0.55393 -2.32168,1.22884 -4.88962,3.89074 -6.0729,6.29514 -1.61783,3.287371 -1.74409,4.417531 -1.74926,15.657031 l -0.005,9.98802 h -5.57829 -5.57829 z"
       id="path36" />
  </g>
</svg>
